<svg width="1920" height="647" viewBox="0 0 1920 647" fill="none" xmlns="http://www.w3.org/2000/svg">
<path fill-rule="evenodd" clip-rule="evenodd" d="M-3.73306 506.7L85.2566 487.676C172.521 469.712 350.5 431.664 525.941 435.185C701.382 438.706 877.691 483.865 1052.6 513.662C1227.5 544.554 1404.36 562.342 1580.48 531.924C1756.6 501.505 1935.39 422.949 2023.07 384.184L2112.46 345.453L2115.73 182.323L2027.16 180.545C1940.29 178.802 1763.15 175.247 1587.71 171.725C1412.27 168.204 1235.12 164.649 1059.68 161.128C884.24 157.606 707.095 154.051 531.654 150.53C356.213 147.009 179.069 143.453 92.2003 141.71L3.62817 139.932L-3.73306 506.7Z" fill="#A7C5B6" fill-opacity="0.8"/>
<path fill-rule="evenodd" clip-rule="evenodd" d="M-136.19 302.806L-43.8539 281.689C46.5267 262.135 231.198 219.901 403.443 246.652C575.688 273.403 738.851 369.66 904.303 440.145C1069.47 512.453 1239.71 563.153 1420.73 533.415C1601.75 503.677 1796.89 394.02 1892.65 339.842L1990.08 285.925L2032.25 14.4104L1945.29 0.904772C1860 -12.3411 1686.09 -39.3522 1513.84 -66.1037C1341.6 -92.8551 1167.68 -119.866 995.434 -146.618C823.189 -173.369 649.272 -200.38 477.027 -227.132C304.782 -253.883 130.865 -280.894 45.5785 -294.14L-41.3801 -307.646L-136.19 302.806Z" fill="#3F729B" fill-opacity="0.9"/>
<path fill-rule="evenodd" clip-rule="evenodd" d="M0 444.727L80.5161 419.277C159.484 395.166 320.516 344.266 480 344.266C639.484 344.266 800.516 395.166 960 427.314C1119.48 460.801 1280.52 478.214 1440 436.69C1599.48 395.166 1760.52 294.705 1839.48 245.144L1920 195.583V-4H1839.48C1760.52 -4 1599.48 -4 1440 -4C1280.52 -4 1119.48 -4 960 -4C800.516 -4 639.484 -4 480 -4C320.516 -4 159.484 -4 80.5161 -4H0V444.727Z" fill="#37474F" fill-opacity="0.9"/>
</svg>
