<svg width="1920" height="483" viewBox="0 0 1920 483" fill="none" xmlns="http://www.w3.org/2000/svg">
<path fill-rule="evenodd" clip-rule="evenodd" d="M0 466.097L80.5161 439.662C159.484 414.618 320.516 361.747 480 361.747C639.484 361.747 800.516 414.618 960 448.01C1119.48 482.793 1280.52 500.881 1440 457.749C1599.48 414.618 1760.52 310.268 1839.48 258.788L1920 207.309V0H1839.48C1760.52 0 1599.48 0 1440 0C1280.52 0 1119.48 0 960 0C800.516 0 639.484 0 480 0C320.516 0 159.484 0 80.5161 0H0V466.097Z" fill="#37474F"/>
</svg>
